<svg xmlns="http://www.w3.org/2000/svg">
  <symbol id="arrowDown" width="16" height="9" viewBox="0 0 16 9">
    <path fill-rule="evenodd" clip-rule="evenodd" d="M15.0709 1.84309L8.70692 8.20705C8.31639 8.59758 7.68323 8.59758 7.2927 8.20705L0.928741 1.84309C0.538216 1.45257 0.538216 0.819404 0.928741 0.42888C1.31926 0.0383552 1.95243 0.0383552 2.34295 0.42888L7.99981 6.08573L13.6567 0.42888C14.0472 0.0383552 14.6804 0.0383552 15.0709 0.42888C15.4614 0.819404 15.4614 1.45257 15.0709 1.84309Z"/>
  </symbol>

  <symbol id="comment" viewBox="0 0 20 20" >
    <path d="M15,14.71A6.66,6.66,0,0,0,19,9c0-3.81-4-6.9-9-6.9S1,5.17,1,9s4,6.91,9,6.91a10.62,10.62,0,0,0,1.51-.11,10.22,10.22,0,0,0,6,2.14C15.39,16.73,15.18,15.73,15,14.71Z"></path>
  </symbol>

  <symbol id="mail" viewBox="0 0 20 20">
    <path d="M10,0A10,10,0,1,0,20,10,10,10,0,0,0,10,0Zm5.85,13.26a.85.85,0,0,1-.84.85H5a.84.84,0,0,1-.84-.85V8.91l5.4,2.75a1,1,0,0,0,.91,0l5.4-2.75Zm0-6.39-5.4,2.74a1,1,0,0,1-.91,0L4.14,6.87v-1H15.85Z"></path>
  </symbol>

  <symbol id="phone" viewBox="0 0 20 20">
    <path d="M10,0A10,10,0,1,0,20,10,10,10,0,0,0,10,0Zm3.6,15.85c-.64,0-2.59-.24-5.9-3.55S4.12,7,4.15,6.4,5.83,3.92,6.48,4.17A7.1,7.1,0,0,1,8.69,7.11c.06.54-.89,1.11-.77,1.53a8.57,8.57,0,0,0,1.54,1.9,8.57,8.57,0,0,0,1.9,1.54c.42.12,1-.83,1.53-.77a7.1,7.1,0,0,1,2.94,2.21C16.08,14.17,14.24,15.81,13.6,15.85Z"></path>
  </symbol>

  <symbol id="user" viewBox="0 0 20 20">
    <path d="M10.07,20A10,10,0,1,1,20,10,10,10,0,0,1,10.07,20Zm.22-8a12.51,12.51,0,0,0-5.64,1.39c-1.11.67-1.18,1.21-.27,2.16a8,8,0,0,0,11.2,0c1-1,.89-1.57-.3-2.23A11.9,11.9,0,0,0,10.29,12Zm2.9-6A3.24,3.24,0,0,0,10,2.82,3.26,3.26,0,0,0,6.81,6,3.24,3.24,0,0,0,10.07,9.2,3.24,3.24,0,0,0,13.19,6Z" transform="translate(0 0)"></path>
  </symbol>
</svg>
