<svg xmlns="http://www.w3.org/2000/svg">
  <symbol id="arrowDown" width="16" height="9" viewBox="0 0 16 9">
    <path fill-rule="evenodd" clip-rule="evenodd" d="M15.0709 1.84309L8.70692 8.20705C8.31639 8.59758 7.68323 8.59758 7.2927 8.20705L0.928741 1.84309C0.538216 1.45257 0.538216 0.819404 0.928741 0.42888C1.31926 0.0383552 1.95243 0.0383552 2.34295 0.42888L7.99981 6.08573L13.6567 0.42888C14.0472 0.0383552 14.6804 0.0383552 15.0709 0.42888C15.4614 0.819404 15.4614 1.45257 15.0709 1.84309Z"/>
  </symbol>

  <symbol id="comment" viewBox="0 0 20 20" >
    <path d="M15,14.71A6.66,6.66,0,0,0,19,9c0-3.81-4-6.9-9-6.9S1,5.17,1,9s4,6.91,9,6.91a10.62,10.62,0,0,0,1.51-.11,10.22,10.22,0,0,0,6,2.14C15.39,16.73,15.18,15.73,15,14.71Z"></path>
  </symbol>

  <symbol id="copy" viewBox="0 0 25 25" >
    <path d="M20.8772 0H7.55031C6.57663 0 5.78438 0.792249 5.78438 1.76594V3.88556H4.12238C3.14869 3.88556 2.35645 4.67771 2.35645 5.6515V23.2341C2.35645 24.2078 3.14869 25 4.12238 25H17.4491C18.4228 25 19.2151 24.2078 19.2151 23.2341V21.1145H20.8772C21.8509 21.1145 22.6431 20.3223 22.6431 19.3486V1.76594C22.6431 0.792249 21.851 0 20.8772 0ZM17.7014 23.2341C17.7014 23.3708 17.5859 23.4863 17.4491 23.4863H4.12238C3.98565 23.4863 3.8701 23.3708 3.8701 23.2341V5.6515C3.8701 5.51466 3.98565 5.39922 4.12238 5.39922H17.4491C17.5859 5.39922 17.7014 5.51466 17.7014 5.6515V23.2341ZM21.1295 19.3486C21.1295 19.4853 21.0139 19.6009 20.8772 19.6009H19.2151V5.6515C19.2151 4.67771 18.4228 3.88556 17.4491 3.88556H7.29804V1.76594C7.29804 1.6292 7.41348 1.51366 7.55031 1.51366H20.8772C21.0139 1.51366 21.1295 1.6292 21.1295 1.76594V19.3486Z"></path>
    <path d="M15.0915 7.78233H6.48046C6.06239 7.78233 5.72363 8.12108 5.72363 8.53916C5.72363 8.95723 6.06239 9.29598 6.48046 9.29598H15.0915C15.5095 9.29598 15.8483 8.95723 15.8483 8.53916C15.8483 8.12118 15.5095 7.78233 15.0915 7.78233Z"></path>
    <path d="M15.0915 11.1908H6.48046C6.06239 11.1908 5.72363 11.5295 5.72363 11.9476C5.72363 12.3657 6.06239 12.7044 6.48046 12.7044H15.0915C15.5095 12.7044 15.8483 12.3657 15.8483 11.9476C15.8483 11.5295 15.5095 11.1908 15.0915 11.1908Z"></path>
    <path d="M15.0915 14.5994H6.48046C6.06239 14.5994 5.72363 14.9382 5.72363 15.3563C5.72363 15.7743 6.06239 16.1131 6.48046 16.1131H15.0915C15.5095 16.1131 15.8483 15.7743 15.8483 15.3563C15.8483 14.9382 15.5095 14.5994 15.0915 14.5994Z"></path>
    <path d="M15.0915 18.0077H6.48046C6.06239 18.0077 5.72363 18.3465 5.72363 18.7645C5.72363 19.1826 6.06239 19.5214 6.48046 19.5214H15.0915C15.5095 19.5214 15.8483 19.1826 15.8483 18.7645C15.8483 18.3466 15.5095 18.0077 15.0915 18.0077Z"></path>
  </symbol>

  <symbol id="clock" viewBox="0 0 24 24">
    <path d="M12,2A10,10,0,1,0,22,12,10,10,0,0,0,12,2Zm5,11H12a1,1,0,0,1-1-1V6a1,1,0,0,1,2,0v5h4a1,1,0,0,1,0,2Z"></path>
  </symbol>

  <symbol id="mail" viewBox="0 0 20 20">
    <path d="M10,0A10,10,0,1,0,20,10,10,10,0,0,0,10,0Zm5.85,13.26a.85.85,0,0,1-.84.85H5a.84.84,0,0,1-.84-.85V8.91l5.4,2.75a1,1,0,0,0,.91,0l5.4-2.75Zm0-6.39-5.4,2.74a1,1,0,0,1-.91,0L4.14,6.87v-1H15.85Z"></path>
  </symbol>

  <symbol id="phone" viewBox="0 0 20 20">
    <path d="M10,0A10,10,0,1,0,20,10,10,10,0,0,0,10,0Zm3.6,15.85c-.64,0-2.59-.24-5.9-3.55S4.12,7,4.15,6.4,5.83,3.92,6.48,4.17A7.1,7.1,0,0,1,8.69,7.11c.06.54-.89,1.11-.77,1.53a8.57,8.57,0,0,0,1.54,1.9,8.57,8.57,0,0,0,1.9,1.54c.42.12,1-.83,1.53-.77a7.1,7.1,0,0,1,2.94,2.21C16.08,14.17,14.24,15.81,13.6,15.85Z"></path>
  </symbol>

  <symbol id="telegram" viewBox="0 0 32 32" >
    <path d="M29.919 6.163l-4.225 19.925c-0.319 1.406-1.15 1.756-2.331 1.094l-6.438-4.744-3.106 2.988c-0.344 0.344-0.631 0.631-1.294 0.631l0.463-6.556 11.931-10.781c0.519-0.462-0.113-0.719-0.806-0.256l-14.75 9.288-6.35-1.988c-1.381-0.431-1.406-1.381 0.288-2.044l24.837-9.569c1.15-0.431 2.156 0.256 1.781 2.013z"></path>
  </symbol>

  <symbol id="user" viewBox="0 0 20 20">
    <path d="M10.07,20A10,10,0,1,1,20,10,10,10,0,0,1,10.07,20Zm.22-8a12.51,12.51,0,0,0-5.64,1.39c-1.11.67-1.18,1.21-.27,2.16a8,8,0,0,0,11.2,0c1-1,.89-1.57-.3-2.23A11.9,11.9,0,0,0,10.29,12Zm2.9-6A3.24,3.24,0,0,0,10,2.82,3.26,3.26,0,0,0,6.81,6,3.24,3.24,0,0,0,10.07,9.2,3.24,3.24,0,0,0,13.19,6Z" transform="translate(0 0)"></path>
  </symbol>
</svg>
